<svg version="1.1" viewBox="0.0 0.0 520.0 45.0" fill="none" stroke="#00000" stroke-linecap="square" stroke-miterlimit="10" xmlns:xlink="http://www.w3.org/1999/xlink" xmlns="http://www.w3.org/2000/svg"><clipPath id="p.0"><path d="m0 0l520.0 0l0 45.0l-520.0 0l0 -45.0z" clip-rule="nonzero"/></clipPath><g clip-path="url(#p.0)"><path fill="#000000" fill-opacity="0.0" d="m0 0l520.0 0l0 45.0l-520.0 0z" fill-rule="evenodd"/><path fill="#000000" fill-opacity="0.0" d="m1.1023622 0.9251968l43.149605 43.149605" fill-rule="evenodd"/><path stroke="#00bec5" stroke-width="15.0" stroke-linejoin="miter" stroke-linecap="square" d="m1.1023622 0.9251968l43.149605 43.149605" fill-rule="evenodd"/><path fill="#000000" fill-opacity="0.0" d="m87.40157 0.9251968l-43.149605 43.149605" fill-rule="evenodd"/><path stroke="#00bec5" stroke-width="15.0" stroke-linejoin="miter" stroke-linecap="square" d="m87.40157 0.9251968l-43.149605 43.149605" fill-rule="evenodd"/><path fill="#000000" fill-opacity="0.0" d="m87.40157 0.9251968l43.149605 43.149605" fill-rule="evenodd"/><path stroke="#00bec5" stroke-width="15.0" stroke-linejoin="miter" stroke-linecap="square" d="m87.40157 0.9251968l43.149605 43.149605" fill-rule="evenodd"/><path fill="#000000" fill-opacity="0.0" d="m173.70079 0.9251968l-43.149612 43.149605" fill-rule="evenodd"/><path stroke="#00bec5" stroke-width="15.0" stroke-linejoin="miter" stroke-linecap="square" d="m173.70079 0.9251968l-43.149612 43.149605" fill-rule="evenodd"/><path fill="#000000" fill-opacity="0.0" d="m173.70079 0.9251968l43.149597 43.149605" fill-rule="evenodd"/><path stroke="#00bec5" stroke-width="15.0" stroke-linejoin="miter" stroke-linecap="square" d="m173.70079 0.9251968l43.149597 43.149605" fill-rule="evenodd"/><path fill="#000000" fill-opacity="0.0" d="m260.0 0.9251968l-43.149612 43.149605" fill-rule="evenodd"/><path stroke="#00bec5" stroke-width="15.0" stroke-linejoin="miter" stroke-linecap="square" d="m260.0 0.9251968l-43.149612 43.149605" fill-rule="evenodd"/><path fill="#000000" fill-opacity="0.0" d="m260.0 0.9251968l43.149597 43.149605" fill-rule="evenodd"/><path stroke="#00bec5" stroke-width="15.0" stroke-linejoin="miter" stroke-linecap="square" d="m260.0 0.9251968l43.149597 43.149605" fill-rule="evenodd"/><path fill="#000000" fill-opacity="0.0" d="m346.29922 0.9251968l-43.149628 43.149605" fill-rule="evenodd"/><path stroke="#00bec5" stroke-width="15.0" stroke-linejoin="miter" stroke-linecap="square" d="m346.29922 0.9251968l-43.149628 43.149605" fill-rule="evenodd"/><path fill="#000000" fill-opacity="0.0" d="m346.29922 0.9251968l43.149597 43.149605" fill-rule="evenodd"/><path stroke="#00bec5" stroke-width="15.0" stroke-linejoin="miter" stroke-linecap="square" d="m346.29922 0.9251968l43.149597 43.149605" fill-rule="evenodd"/><path fill="#000000" fill-opacity="0.0" d="m432.59842 0.9251968l-43.149597 43.149605" fill-rule="evenodd"/><path stroke="#00bec5" stroke-width="15.0" stroke-linejoin="miter" stroke-linecap="square" d="m432.59842 0.9251968l-43.149597 43.149605" fill-rule="evenodd"/><path fill="#000000" fill-opacity="0.0" d="m432.59842 0.9251968l43.149597 43.149605" fill-rule="evenodd"/><path stroke="#00bec5" stroke-width="15.0" stroke-linejoin="miter" stroke-linecap="square" d="m432.59842 0.9251968l43.149597 43.149605" fill-rule="evenodd"/><path fill="#000000" fill-opacity="0.0" d="m518.89764 0.9251968l-43.149628 43.149605" fill-rule="evenodd"/><path stroke="#00bec5" stroke-width="15.0" stroke-linejoin="miter" stroke-linecap="square" d="m518.89764 0.9251968l-43.149628 43.149605" fill-rule="evenodd"/></g></svg>